<svg width="56" height="79" viewBox="0 0 56 79" fill="none" xmlns="http://www.w3.org/2000/svg">
<circle cx="28" cy="28" r="22" fill="#C4C4C4" fill-opacity="0.4"/>
<path d="M17 15L19.2768 42L29.5 45L39.7196 42.0019L42 15H17Z" fill="#2196F3"/>
<path d="M37.1321 23.8294L36.8446 27.2213L35.9768 37.3894L29.5 39.27L29.4946 39.2719L23.0214 37.3894L22.5696 32.0719H25.7411L25.9768 34.83L29.4964 35.8275L29.4982 35.8256L33.0232 34.8281L33.5036 30.2325L22.4178 30.2644L22.1036 27.1219L33.7696 26.9775L34.0053 23.6138L21.7911 23.6494L21.5857 20.52H29.5H37.4143L37.1321 23.8294Z" fill="#FAFAFA"/>
<path d="M9.63035 6.86813C4.66072 11.1882 1.37261 17.1215 0.343838 23.6255C-0.684936 30.1294 0.611446 36.7879 4.00518 42.4308C7.39891 48.0737 12.6728 52.3401 18.9002 54.4801C25.1276 56.6201 31.91 56.4969 38.0555 54.1321C44.2011 51.7673 49.3166 47.3122 52.5031 41.5498C55.6897 35.7873 56.7434 29.0861 55.479 22.6238C54.2147 16.1615 50.7133 10.3515 45.59 6.21486C40.4667 2.07818 34.0494 -0.120531 27.4658 0.00509616L27.5476 4.28922C33.1237 4.18282 38.5589 6.04505 42.8982 9.54869C47.2374 13.0523 50.203 17.9732 51.2738 23.4466C52.3447 28.9199 51.4523 34.5956 48.7534 39.4762C46.0545 44.3568 41.7218 48.1301 36.5167 50.133C31.3116 52.1359 25.5672 52.2403 20.2928 50.4278C15.0184 48.6152 10.5515 45.0018 7.67716 40.2224C4.80278 35.4431 3.70478 29.8035 4.57612 24.2949C5.44746 18.7862 8.23238 13.7609 12.4415 10.102L9.63035 6.86813Z" fill="#3B5999"/>
<path d="M15.7968 75.098C15.0221 75.098 14.3268 74.9347 13.7108 74.608C13.0948 74.2813 12.6141 73.8287 12.2688 73.25C11.9234 72.662 11.7508 71.9993 11.7508 71.262C11.7508 70.5247 11.9234 69.8667 12.2688 69.288C12.6141 68.7093 13.0901 68.2567 13.6968 67.93C14.3128 67.6033 15.0128 67.44 15.7968 67.44C16.5341 67.44 17.1781 67.5893 17.7288 67.888C18.2888 68.1867 18.7088 68.616 18.9888 69.176L17.6448 69.96C17.4301 69.6147 17.1594 69.358 16.8328 69.19C16.5154 69.0127 16.1654 68.924 15.7828 68.924C15.1294 68.924 14.5881 69.1387 14.1588 69.568C13.7294 69.988 13.5148 70.5527 13.5148 71.262C13.5148 71.9713 13.7248 72.5407 14.1448 72.97C14.5741 73.39 15.1201 73.6 15.7828 73.6C16.1654 73.6 16.5154 73.516 16.8328 73.348C17.1594 73.1707 17.4301 72.9093 17.6448 72.564L18.9888 73.348C18.6994 73.908 18.2748 74.342 17.7148 74.65C17.1641 74.9487 16.5248 75.098 15.7968 75.098ZM22.8115 75.098C22.2048 75.098 21.6122 75.0187 21.0335 74.86C20.4548 74.7013 19.9928 74.5007 19.6475 74.258L20.3195 72.928C20.6555 73.152 21.0568 73.334 21.5235 73.474C21.9995 73.6047 22.4662 73.67 22.9235 73.67C23.9688 73.67 24.4915 73.3947 24.4915 72.844C24.4915 72.5827 24.3562 72.4007 24.0855 72.298C23.8242 72.1953 23.3995 72.0973 22.8115 72.004C22.1955 71.9107 21.6915 71.8033 21.2995 71.682C20.9168 71.5607 20.5808 71.3507 20.2915 71.052C20.0115 70.744 19.8715 70.3193 19.8715 69.778C19.8715 69.0687 20.1655 68.504 20.7535 68.084C21.3508 67.6547 22.1535 67.44 23.1615 67.44C23.6748 67.44 24.1882 67.5007 24.7015 67.622C25.2148 67.734 25.6348 67.888 25.9615 68.084L25.2895 69.414C24.6548 69.0407 23.9408 68.854 23.1475 68.854C22.6342 68.854 22.2422 68.9333 21.9715 69.092C21.7102 69.2413 21.5795 69.442 21.5795 69.694C21.5795 69.974 21.7195 70.1747 21.9995 70.296C22.2888 70.408 22.7322 70.5153 23.3295 70.618C23.9268 70.7113 24.4168 70.8187 24.7995 70.94C25.1822 71.0613 25.5088 71.2667 25.7795 71.556C26.0595 71.8453 26.1995 72.256 26.1995 72.788C26.1995 73.488 25.8962 74.048 25.2895 74.468C24.6828 74.888 23.8568 75.098 22.8115 75.098ZM30.0166 75.098C29.4099 75.098 28.8173 75.0187 28.2386 74.86C27.6599 74.7013 27.1979 74.5007 26.8526 74.258L27.5246 72.928C27.8606 73.152 28.2619 73.334 28.7286 73.474C29.2046 73.6047 29.6713 73.67 30.1286 73.67C31.1739 73.67 31.6966 73.3947 31.6966 72.844C31.6966 72.5827 31.5613 72.4007 31.2906 72.298C31.0293 72.1953 30.6046 72.0973 30.0166 72.004C29.4006 71.9107 28.8966 71.8033 28.5046 71.682C28.1219 71.5607 27.7859 71.3507 27.4966 71.052C27.2166 70.744 27.0766 70.3193 27.0766 69.778C27.0766 69.0687 27.3706 68.504 27.9586 68.084C28.5559 67.6547 29.3586 67.44 30.3666 67.44C30.8799 67.44 31.3933 67.5007 31.9066 67.622C32.4199 67.734 32.8399 67.888 33.1666 68.084L32.4946 69.414C31.8599 69.0407 31.1459 68.854 30.3526 68.854C29.8393 68.854 29.4473 68.9333 29.1766 69.092C28.9153 69.2413 28.7846 69.442 28.7846 69.694C28.7846 69.974 28.9246 70.1747 29.2046 70.296C29.4939 70.408 29.9373 70.5153 30.5346 70.618C31.1319 70.7113 31.6219 70.8187 32.0046 70.94C32.3873 71.0613 32.7139 71.2667 32.9846 71.556C33.2646 71.8453 33.4046 72.256 33.4046 72.788C33.4046 73.488 33.1013 74.048 32.4946 74.468C31.8879 74.888 31.0619 75.098 30.0166 75.098ZM42.4208 69.246C43.3261 69.358 44.0168 69.666 44.4928 70.17C44.9688 70.674 45.2068 71.304 45.2068 72.06C45.2068 72.6293 45.0621 73.1473 44.7728 73.614C44.4835 74.0807 44.0448 74.454 43.4568 74.734C42.8781 75.0047 42.1688 75.14 41.3288 75.14C40.6288 75.14 39.9521 75.042 39.2988 74.846C38.6548 74.6407 38.1041 74.3607 37.6468 74.006L38.4308 72.592C38.7855 72.8907 39.2148 73.1287 39.7188 73.306C40.2321 73.474 40.7595 73.558 41.3008 73.558C41.9448 73.558 42.4488 73.4273 42.8128 73.166C43.1861 72.8953 43.3728 72.5313 43.3728 72.074C43.3728 71.6167 43.1955 71.262 42.8408 71.01C42.4955 70.7487 41.9635 70.618 41.2448 70.618H40.3488V69.372L42.5748 66.726H38.1228V65.2H44.8008V66.418L42.4208 69.246Z" fill="#545454"/>
</svg>
