<svg width="147" height="147" viewBox="0 0 147 147" fill="none" xmlns="http://www.w3.org/2000/svg">
<path d="M138.843 41.0362C146.59 56.4185 148.647 74.0445 144.651 90.7972C140.655 107.55 130.863 122.35 117.007 132.579C103.152 142.808 86.1249 147.808 68.9383 146.695C51.7517 145.581 35.5127 138.425 23.0933 126.493C10.6738 114.561 2.87413 98.621 1.07367 81.4928C-0.726797 64.3645 3.58796 47.1514 13.2548 32.8976C22.9217 18.6438 37.3179 8.26781 53.8972 3.60469C70.4765 -1.05842 88.1708 0.291783 103.851 7.41653L97.1781 22.1011C84.9635 16.5509 71.1797 15.4991 58.2643 19.1317C45.349 22.7642 34.1344 30.8471 26.6039 41.9509C19.0733 53.0546 15.7121 66.4637 17.1147 79.8066C18.5173 93.1495 24.5932 105.567 34.268 114.862C43.9428 124.157 56.593 129.731 69.9814 130.599C83.3698 131.466 96.6336 127.571 107.427 119.603C118.221 111.634 125.848 100.105 128.961 87.0547C132.074 74.0044 130.472 60.2737 124.438 48.2909L138.843 41.0362Z" fill="url(#paint0_linear_2_190)"/>
<defs>
<linearGradient id="paint0_linear_2_190" x1="40.8314" y1="8.67766" x2="106.485" y2="139.048" gradientUnits="userSpaceOnUse">
<stop stop-color="#15B9B9"/>
<stop offset="1" stop-color="#3C1DFF"/>
</linearGradient>
</defs>
</svg>
