<svg width="56" height="79" viewBox="0 0 56 79" fill="none" xmlns="http://www.w3.org/2000/svg">
<circle cx="28" cy="28" r="22" fill="#C4C4C4" fill-opacity="0.4"/>
<path d="M16 15L17.7573 41.256L28.5 45L39.2427 41.256L41 15H16Z" fill="#FF7816"/>
<path d="M36.3084 22.9688H24.0238L24.3221 27.3633H36.0101L35.2971 38.0038L28.5 40.4121L21.7028 38.0038L21.4708 34.4531H24.7865L24.8527 35.4199L28.5 36.703L32.1472 35.4199L32.4455 30.8789H21.2221L20.4595 19.4531H36.5404L36.3084 22.9688Z" fill="#ECECF1"/>
<path d="M16.6114 2.42073C10.2724 5.24303 5.20713 10.3186 2.39768 16.6633C-0.411762 23.008 -0.765257 30.1699 1.40573 36.7604C3.57672 43.351 8.11753 48.9006 14.1478 52.3334C20.1781 55.7663 27.2682 56.8377 34.0435 55.34C40.8189 53.8423 46.7967 49.8822 50.8182 44.2274C54.8396 38.5727 56.6182 31.6261 55.8089 24.7346C54.9997 17.843 51.6604 11.4974 46.4384 6.92807C41.2164 2.35871 34.4837 -0.10889 27.5457 0.00368522L27.6152 4.28802C33.4915 4.19267 39.1938 6.28265 43.6167 10.1528C48.0396 14.0229 50.8679 19.3974 51.5533 25.2343C52.2387 31.0712 50.7323 36.9547 47.3263 41.7441C43.9202 46.5335 38.8572 49.8876 33.1187 51.1561C27.3802 52.4246 21.3751 51.5171 16.2676 48.6096C11.1602 45.7021 7.31427 41.0018 5.47551 35.4198C3.63675 29.8378 3.93615 23.7719 6.31566 18.3982C8.69517 13.0244 12.9853 8.72558 18.3542 6.33518L16.6114 2.42073Z" fill="#3B5999"/>
<path d="M11.024 65.2V75H9.204V70.8H4.136V75H2.316V65.2H4.136V69.246H9.204V65.2H11.024ZM15.638 66.74H12.39V65.2H20.706V66.74H17.458V75H15.638V66.74ZM31.0739 75L31.0599 68.504L27.8399 73.88H27.0279L23.8079 68.588V75H22.0719V65.2H23.5699L27.4619 71.696L31.2839 65.2H32.7819L32.7959 75H31.0739ZM35.443 65.2H37.263V73.46H42.387V75H35.443V65.2ZM50.059 68.994C51.4403 68.994 52.4623 69.2647 53.125 69.806C53.7876 70.338 54.119 71.066 54.119 71.99C54.119 72.578 53.9743 73.11 53.685 73.586C53.3956 74.062 52.9616 74.44 52.383 74.72C51.8043 75 51.0903 75.14 50.241 75.14C49.541 75.14 48.8643 75.042 48.211 74.846C47.5576 74.6407 47.007 74.3607 46.559 74.006L47.329 72.592C47.693 72.8907 48.127 73.1287 48.631 73.306C49.1443 73.474 49.6716 73.558 50.213 73.558C50.857 73.558 51.361 73.4273 51.725 73.166C52.0983 72.8953 52.285 72.5267 52.285 72.06C52.285 71.556 52.0843 71.178 51.683 70.926C51.291 70.6647 50.6143 70.534 49.653 70.534H47.287L47.791 65.2H53.545V66.726H49.331L49.121 68.994H50.059Z" fill="#545454"/>
</svg>
